<?xml version="1.0" standalone="no"?>
<!DOCTYPE svg PUBLIC "-//W3C//DTD SVG 20010904//EN"
 "http://www.w3.org/TR/2001/REC-SVG-20010904/DTD/svg10.dtd">
<svg version="1.0" xmlns="http://www.w3.org/2000/svg"
 width="512.000000pt" height="512.000000pt" viewBox="0 0 512.000000 512.000000"
 preserveAspectRatio="xMidYMid meet">

<g transform="translate(0.000000,512.000000) scale(0.100000,-0.100000)"
fill="#000000" stroke="none">
<path d="M3227 4586 c-172 -62 -402 -352 -486 -615 -55 -170 -67 -379 -31
-531 25 -102 93 -244 154 -321 153 -194 421 -117 612 176 96 148 147 267 192
445 23 93 26 124 26 270 -1 138 -4 178 -23 245 -46 168 -110 263 -213 314 -50
25 -73 31 -127 31 -36 -1 -83 -7 -104 -14z"/>
<path d="M1685 4537 c-107 -51 -217 -216 -250 -375 -81 -393 154 -1021 440
-1170 71 -37 176 -37 257 0 192 89 307 333 308 654 1 296 -114 564 -328 766
-99 93 -200 142 -301 146 -63 2 -84 -1 -126 -21z"/>
<path d="M789 3316 c-53 -14 -93 -40 -142 -95 -47 -52 -72 -101 -99 -198 -30
-107 -30 -292 1 -408 53 -199 178 -388 323 -486 90 -61 151 -82 243 -83 68 -1
88 3 137 27 144 71 227 252 215 467 -12 208 -102 408 -259 575 -150 161 -300
233 -419 201z"/>
<path d="M4167 3265 c-206 -71 -422 -284 -515 -507 -50 -121 -65 -197 -60
-323 4 -93 8 -119 32 -170 33 -73 84 -128 151 -163 75 -39 205 -43 300 -10 39
13 88 36 111 50 172 109 321 310 385 518 19 60 23 98 23 190 -1 209 -61 352
-173 413 -64 35 -156 36 -254 2z"/>
<path d="M2355 2576 c-168 -55 -252 -115 -465 -333 -307 -312 -568 -684 -657
-935 -98 -276 36 -511 320 -559 98 -16 274 -6 427 25 385 78 514 59 980 -139
228 -97 276 -109 430 -109 128 -1 138 0 192 27 74 36 150 119 179 195 28 73
37 231 19 340 -27 167 -123 403 -245 597 -173 276 -394 512 -680 725 -155 116
-220 154 -300 175 -79 20 -116 19 -200 -9z"/>
</g>
</svg>
